<?xml version="1.0" standalone="no"?>
<!DOCTYPE svg PUBLIC "-//W3C//DTD SVG 20010904//EN"
 "http://www.w3.org/TR/2001/REC-SVG-20010904/DTD/svg10.dtd">
<svg version="1.0" xmlns="http://www.w3.org/2000/svg"
 width="1588.000000pt" height="1588.000000pt" viewBox="0 0 1588.000000 1588.000000"
 preserveAspectRatio="xMidYMid meet">
<metadata>
Created by potrace 1.14, written by Peter Selinger 2001-2017
</metadata>
<g transform="translate(0.000000,1588.000000) scale(0.100000,-0.100000)"
fill="#000000" stroke="none">
<path d="M405 12352 l0 -168 -60 -1 c-145 -1 -296 -22 -329 -46 -37 -27 13
-64 98 -73 99 -12 149 -15 216 -17 l75 -2 0 -312 c0 -204 -3 -313 -10 -313
-127 -4 -242 -14 -295 -25 -68 -13 -80 -17 -91 -31 -18 -22 18 -55 64 -57 20
-1 37 -5 37 -8 0 -3 17 -7 38 -8 62 -3 175 -11 202 -14 14 -2 31 1 38 6 6 5
13 8 13 6 1 -2 2 -150 3 -329 l1 -325 -55 -1 c-127 -1 -238 -14 -306 -34 -64
-19 -50 -59 26 -76 64 -14 200 -25 285 -25 l50 1 0 -323 0 -322 -75 -2 c-64
-2 -163 -10 -220 -17 -32 -4 -99 -27 -105 -35 -9 -16 6 -39 33 -49 43 -17 180
-32 299 -34 35 -1 64 -6 66 -12 2 -6 3 -150 3 -320 -1 -288 -2 -309 -19 -312
-9 -1 -69 -4 -132 -6 -63 -1 -115 -5 -115 -8 0 -4 -10 -7 -22 -7 -13 -1 -32
-4 -43 -6 -11 -3 -25 -6 -32 -6 -14 -1 -43 -29 -43 -41 0 -5 9 -14 21 -20 19
-11 30 -14 84 -25 32 -7 133 -16 215 -19 41 -2 77 -4 80 -5 3 0 5 -145 5 -320
l0 -319 -85 -2 c-89 -1 -117 -3 -190 -14 -61 -9 -70 -11 -102 -24 -31 -13 -32
-15 -18 -42 15 -29 158 -53 322 -54 38 -1 69 -5 69 -11 1 -5 2 -149 3 -319 1
-200 -2 -310 -9 -312 -5 -1 -59 -6 -120 -9 -119 -7 -179 -12 -182 -15 -2 -1
-6 -3 -10 -4 -5 -1 -22 -6 -40 -10 -34 -8 -49 -31 -33 -51 19 -23 137 -43 293
-50 40 -2 79 -4 87 -4 13 -1 15 -42 15 -315 0 -173 -3 -317 -5 -320 -3 -3 -50
-7 -105 -9 -55 -3 -100 -6 -100 -7 0 0 -20 -3 -45 -4 -63 -5 -125 -23 -141
-42 -11 -14 -10 -19 8 -34 12 -10 44 -21 70 -24 26 -4 62 -10 78 -13 30 -5
125 -11 200 -12 l40 -1 0 -320 c0 -314 0 -320 -20 -320 -80 -2 -224 -10 -245
-15 -147 -29 -176 -56 -96 -89 40 -17 101 -25 241 -32 60 -3 112 -10 115 -14
4 -7 5 -613 1 -630 0 -3 -38 -5 -84 -6 -156 -1 -275 -21 -304 -50 -39 -38 53
-71 222 -79 39 -2 93 -4 120 -6 l50 -2 0 -313 c0 -172 -3 -316 -7 -320 -4 -3
-42 -8 -85 -10 -165 -6 -275 -24 -299 -49 -23 -23 -17 -36 21 -45 6 -1 17 -6
26 -11 27 -14 192 -31 304 -31 l41 0 -1 -159 c0 -101 3 -160 10 -162 5 -1
1404 -2 3108 -2 l3097 1 25 26 c23 25 25 35 26 122 1 89 7 108 29 86 5 -5 24
-16 103 -59 93 -51 151 -84 189 -108 21 -12 39 -23 41 -23 2 0 59 -32 128 -72
159 -92 200 -96 272 -30 15 14 27 29 27 32 0 4 22 45 48 91 27 46 60 104 74
129 14 25 72 128 130 230 58 102 116 205 130 230 151 267 188 334 188 338 0 2
8 16 18 30 11 15 33 52 49 82 17 30 44 80 62 110 17 30 54 96 82 145 27 50 59
106 71 125 11 19 31 55 45 80 13 25 32 59 42 75 10 17 33 57 51 90 70 126 83
149 146 257 35 61 64 115 64 119 0 5 5 9 11 9 5 0 8 4 4 9 -3 5 1 15 8 23 7 7
20 28 28 46 7 17 17 32 21 32 5 0 8 5 8 11 0 5 26 56 59 112 32 56 70 122 83
147 14 25 51 89 82 143 31 54 56 103 56 108 0 5 5 9 10 9 6 0 10 4 10 10 0 7
82 157 120 220 30 47 78 136 80 145 1 6 7 17 13 25 14 18 36 55 55 95 8 17 20
37 27 45 7 8 25 40 41 70 16 30 31 57 34 60 3 3 14 23 26 45 20 38 85 156 134
240 12 22 34 60 48 85 14 25 42 74 62 110 41 70 69 121 103 185 12 22 24 42
28 45 3 3 13 21 22 40 10 19 27 51 39 70 23 38 100 174 130 230 11 19 30 53
43 75 13 22 31 57 40 78 10 20 21 37 25 37 4 0 13 12 19 28 5 15 23 50 39 77
44 75 72 125 100 175 13 25 28 50 32 55 4 6 21 35 37 65 17 30 63 113 103 184
84 149 92 188 50 249 -14 20 -29 37 -35 38 -5 0 -30 14 -55 29 -25 16 -60 36
-78 44 -18 9 -40 22 -48 31 -9 8 -19 13 -24 10 -5 -3 -12 0 -15 5 -4 6 -17 16
-28 21 -12 5 -31 15 -42 22 -11 7 -52 30 -90 51 -39 22 -73 43 -76 48 -3 6
-10 10 -15 10 -27 1 -35 12 -29 37 4 14 10 28 13 31 7 5 48 78 67 117 5 13 13
23 18 23 4 0 7 4 7 9 0 5 20 44 44 88 53 94 59 120 40 176 -15 45 -34 60 -139
117 -33 18 -64 36 -70 40 -5 4 -41 25 -80 45 -104 56 -110 59 -115 66 -3 3
-18 12 -35 21 -45 23 -149 80 -160 88 -5 4 -46 27 -90 51 -44 23 -82 45 -85
48 -3 4 -23 15 -45 26 -22 11 -42 22 -45 25 -3 3 -23 15 -45 27 -46 24 -72 39
-206 115 -52 30 -102 58 -110 61 -8 4 -30 17 -49 28 -19 12 -55 32 -80 46 -25
13 -61 33 -80 45 -19 11 -53 30 -75 41 -22 12 -42 24 -45 27 -3 3 -21 13 -40
24 -53 28 -118 65 -183 102 -32 19 -62 34 -68 34 -5 0 -9 5 -9 12 0 6 -3 8 -7
5 -3 -4 -13 -1 -22 7 -9 7 -45 29 -81 49 -100 54 -193 106 -210 117 -23 14
-152 87 -275 155 -38 22 -71 43 -73 47 -2 4 -12 8 -23 8 -10 0 -19 5 -19 10 0
6 -4 10 -8 10 -12 0 -456 252 -463 263 -3 5 -10 9 -15 9 -5 0 -46 21 -92 46
-46 26 -100 55 -120 66 -20 10 -39 21 -42 25 -3 3 -24 16 -47 29 -24 12 -61
32 -84 44 l-40 22 1 71 c3 158 1 181 -21 206 l-21 24 -3112 3 -3111 2 0 -168z
m370 -76 c14 6 70 -20 90 -40 64 -63 46 -189 -33 -238 -60 -37 -162 -20 -196
34 -14 23 -9 26 50 32 65 6 124 30 124 50 0 15 -31 37 -60 43 -38 7 -107 16
-122 15 -24 -1 -23 8 5 49 16 24 37 39 72 51 28 9 51 12 53 8 2 -5 9 -7 17 -4z
m-379 -125 c6 0 10 -18 9 -38 l-1 -38 -84 1 c-149 2 -309 28 -278 44 13 8 82
21 131 25 15 2 30 4 32 6 3 4 164 4 191 0z m257 -8 c17 -3 45 -6 62 -8 16 -2
33 -4 38 -4 4 -1 7 -7 7 -15 0 -9 -17 -16 -47 -21 -27 -3 -60 -8 -75 -11 -22
-3 -28 0 -32 18 -7 34 -4 58 6 52 5 -3 23 -8 41 -11z m191 -674 c75 -51 83
-167 15 -231 -10 -10 -23 -18 -29 -18 -5 0 -10 -4 -10 -8 0 -5 -6 -9 -12 -10
-7 -1 -26 -3 -43 -5 -36 -5 -91 16 -122 45 -25 24 -30 44 -10 45 17 1 75 12
124 25 64 16 67 59 5 73 -15 3 -38 8 -52 11 -14 3 -32 7 -40 9 -8 2 -25 4 -38
4 -22 1 -22 2 -8 23 9 13 33 33 54 46 47 29 115 26 166 -9z m-438 -109 c1 -48
-11 -57 -68 -54 -102 6 -193 14 -218 19 -14 3 -40 8 -57 11 -49 9 -32 20 49
33 102 16 112 16 208 16 84 0 85 0 86 -25z m258 13 c55 -4 69 -7 84 -16 6 -5
18 -5 25 -2 6 4 3 -1 -7 -9 -11 -9 -29 -17 -40 -17 -27 -2 -53 -5 -93 -12 -33
-5 -33 -5 -33 34 0 28 4 38 12 33 6 -4 30 -9 52 -11z m135 -663 c122 -35 144
-203 36 -270 -63 -39 -133 -32 -187 18 -30 27 -36 49 -15 49 78 1 177 34 177
59 0 13 -32 35 -60 41 -27 6 -85 15 -104 16 -41 4 -25 40 34 76 39 23 68 26
119 11z m-398 -110 c1 -6 2 -21 2 -35 0 -14 -1 -29 -2 -33 -1 -9 -51 -8 -191
2 -112 9 -163 19 -160 31 1 6 6 9 11 8 5 -2 9 1 9 5 0 5 6 9 13 9 28 1 120 12
122 15 9 8 195 6 196 -2z m263 -6 c23 -2 52 -6 66 -10 14 -4 29 -6 33 -5 5 1
7 -4 5 -11 -5 -14 -49 -25 -118 -30 l-45 -3 -1 37 c-1 23 3 35 9 31 6 -3 29
-7 51 -9z m171 -680 c45 -24 74 -83 68 -141 -7 -78 -64 -133 -143 -139 -34 -2
-120 31 -120 46 0 5 -7 16 -15 24 -17 17 -11 20 60 30 17 2 31 5 33 6 1 2 10
3 20 4 54 6 83 35 61 63 -7 7 -14 11 -17 9 -2 -3 -14 0 -26 6 -18 10 -57 17
-118 21 -26 2 -22 19 11 51 50 48 120 56 186 20z m-430 -129 l0 -40 -75 1
c-143 3 -311 27 -295 42 4 4 7 6 8 4 1 -2 14 1 29 7 16 6 58 13 95 17 38 3 69
6 70 7 1 1 39 2 85 2 l83 0 0 -40z m315 20 c8 -2 26 -8 40 -13 22 -9 18 -11
-40 -23 -91 -18 -114 -18 -118 4 -9 47 10 52 118 32z m122 -677 c37 -26 71
-98 65 -137 -7 -44 -34 -87 -69 -113 -26 -18 -45 -23 -91 -22 -52 1 -62 4 -92
34 -43 42 -44 55 -2 58 32 3 72 9 72 12 0 1 10 3 23 6 68 12 81 47 27 70 -31
13 -51 17 -133 28 -34 5 -34 10 -1 44 52 53 142 62 201 20z m-436 -123 l-1
-40 -85 1 c-140 2 -265 18 -275 35 -8 12 70 31 132 33 29 0 53 3 53 6 0 3 40
5 88 5 l88 1 0 -41z m327 14 c26 -6 46 -14 43 -16 -7 -8 -117 -29 -146 -28
-21 0 -25 5 -26 32 -1 32 -1 32 40 28 23 -3 63 -10 89 -16z m98 -666 c46 -25
79 -91 73 -145 -13 -133 -179 -184 -266 -83 -22 26 -22 40 0 42 15 0 58 7 113
16 32 5 63 33 56 50 -8 21 -85 42 -169 46 -10 1 -18 7 -18 14 1 18 36 57 52
57 8 0 18 4 24 9 24 24 86 21 135 -6z m-436 -92 c6 0 11 -19 10 -40 l0 -39
-115 4 c-129 5 -156 8 -185 16 -11 3 -33 9 -50 13 l-30 7 24 9 c29 11 76 19
137 23 25 2 46 5 49 7 3 4 134 4 160 0z m265 -11 c3 -2 9 -2 14 -1 22 4 105
-22 100 -31 -4 -5 -15 -8 -25 -5 -11 3 -19 1 -19 -3 0 -5 -8 -9 -17 -9 -10 1
-38 -2 -63 -6 l-46 -7 -2 36 c-2 33 -1 34 25 31 16 -2 30 -4 33 -5z m160 -671
c0 -5 6 -9 14 -9 25 0 66 -66 69 -112 5 -54 -13 -98 -53 -132 -62 -51 -145
-47 -205 11 -20 19 -34 37 -32 39 2 3 26 7 53 11 93 11 143 33 144 64 0 17
-107 47 -172 49 -45 1 4 63 65 84 38 13 117 9 117 -5z m-414 -136 l0 -42 -116
4 c-63 2 -131 7 -150 10 -34 7 -61 11 -87 14 -23 2 -14 19 15 26 30 9 31 9
147 20 44 4 81 8 82 9 1 0 25 1 55 1 l54 0 0 -42z m354 7 c21 -12 -18 -26 -98
-35 l-63 -7 3 34 2 34 70 -9 c39 -5 78 -13 86 -17z m68 -658 c70 -35 98 -140
57 -209 -38 -65 -144 -95 -202 -57 -40 25 -63 48 -63 60 0 6 37 18 82 27 89
18 119 36 99 61 -18 22 -91 43 -158 45 -32 1 -29 19 9 53 53 47 109 54 176 20z
m-423 -129 c-2 -35 -18 -54 -39 -48 -6 2 -54 7 -106 10 -52 3 -122 9 -155 15
-33 5 -61 10 -62 10 -2 0 -3 4 -3 9 0 9 13 13 80 26 14 3 72 8 130 11 58 4
106 8 108 9 1 1 13 0 26 -2 20 -4 23 -10 21 -40z m352 6 c30 -11 28 -16 -12
-23 -17 -2 -30 -5 -30 -6 0 -1 -26 -3 -57 -5 l-58 -5 0 33 0 34 66 -9 c36 -5
77 -13 91 -19z m73 -660 c130 -73 78 -279 -71 -281 -46 0 -102 24 -124 55 -22
31 -20 34 28 41 85 13 102 17 125 32 12 8 22 18 22 23 0 22 -53 42 -152 56
-44 7 -47 15 -15 49 46 50 124 60 187 25z m-425 -133 c1 -35 -9 -43 -47 -37
-3 0 -53 3 -110 6 -131 8 -157 11 -188 23 l-24 9 22 12 c12 6 22 10 22 7 0 -2
17 0 38 5 20 5 84 12 142 15 58 3 107 8 109 10 13 12 36 -19 36 -50z m252 30
c69 -6 114 -18 110 -30 -2 -6 -13 -12 -25 -12 -12 -1 -23 -2 -24 -4 -3 -2 -25
-5 -78 -11 -34 -4 -35 -3 -38 35 -2 25 0 36 7 31 6 -3 28 -8 48 -9z m173 -677
c51 -29 78 -83 74 -145 -1 -27 -8 -50 -13 -52 -6 -2 -11 -9 -11 -16 0 -34 -87
-75 -145 -69 -59 7 -150 87 -102 91 10 1 50 7 97 15 30 5 80 30 80 39 0 24
-38 45 -99 54 -20 4 -43 8 -51 9 -8 2 -21 4 -27 4 -7 1 -13 6 -13 12 0 14 47
57 75 69 36 16 96 11 135 -11z m-426 -116 c-1 -16 -2 -35 -3 -43 -1 -12 -13
-15 -58 -13 -79 3 -204 12 -228 17 -52 11 -75 19 -75 27 0 5 3 8 8 8 4 -1 9 0
12 1 12 4 49 10 100 16 30 4 56 7 57 8 1 0 44 2 96 4 l94 2 -3 -27z m321 2
c31 -6 57 -24 39 -26 -5 -1 -18 -3 -29 -5 -69 -13 -126 -20 -130 -16 -3 3 -5
18 -5 34 0 29 1 29 48 24 26 -3 61 -8 77 -11z m90 -658 c55 -26 94 -88 90
-142 -2 -17 -3 -37 -4 -46 -3 -45 -105 -114 -156 -105 -63 12 -125 52 -125 82
0 9 105 31 131 26 3 0 18 10 34 22 24 20 27 26 17 39 -7 8 -27 18 -45 22 -17
4 -39 9 -47 11 -8 2 -30 4 -48 6 -39 3 -47 11 -33 37 25 46 132 74 186 48z
m-444 -101 c16 -1 30 3 32 8 3 6 4 -7 3 -29 -1 -22 -5 -45 -9 -51 -13 -21
-330 6 -354 30 -9 8 48 28 64 22 7 -3 13 -2 13 2 0 4 12 8 27 8 101 5 163 11
169 17 4 3 11 4 16 1 5 -3 23 -7 39 -8z m357 -22 c67 -11 49 -30 -36 -40 -20
-2 -48 -6 -62 -9 -23 -5 -25 -2 -27 30 l-2 36 42 -5 c23 -3 61 -8 85 -12z"/>
<path d="M12898 10885 c-2 -2 -25 -5 -53 -8 -124 -12 -279 -70 -368 -138 -130
-100 -194 -208 -207 -352 -5 -51 -5 -96 0 -102 5 -6 1 -27 -10 -50 -11 -22
-19 -46 -20 -52 0 -7 -3 -13 -7 -13 -10 0 -11 -16 -18 -143 -4 -82 -1 -110 17
-165 85 -266 373 -405 638 -307 96 35 169 38 300 11 45 -10 154 -59 209 -95
29 -20 61 -40 70 -46 28 -18 196 -189 226 -230 16 -22 34 -44 40 -50 6 -5 27
-35 48 -65 20 -30 62 -91 92 -135 97 -139 110 -158 120 -174 6 -8 15 -20 21
-26 5 -5 22 -26 36 -45 38 -51 179 -190 232 -228 49 -35 196 -114 196 -105 0
3 7 0 15 -7 8 -7 15 -10 15 -6 0 3 12 1 28 -5 79 -32 230 -31 322 1 105 37
230 134 270 211 7 13 16 26 20 29 3 3 17 28 29 55 12 28 26 57 30 65 5 9 12
36 17 60 8 45 10 53 14 68 3 13 1 135 -5 182 -2 25 -16 75 -29 112 -13 36 -22
69 -18 72 3 3 1 6 -4 6 -5 0 -23 27 -38 60 -16 33 -32 60 -37 60 -4 0 -11 9
-14 20 -8 26 -202 220 -220 220 -2 0 -24 14 -49 30 -78 53 -242 119 -331 135
-16 2 -40 7 -53 9 -13 3 -45 6 -73 8 -27 2 -49 7 -49 11 0 5 -5 5 -10 2 -6 -4
-50 -9 -98 -11 -110 -6 -125 -8 -140 -18 -6 -4 -12 -5 -12 -3 0 4 -34 -3 -92
-18 -161 -44 -257 -15 -291 86 -17 50 -14 158 7 314 5 30 -11 165 -25 210 -21
72 -63 168 -91 208 -11 15 -17 27 -14 27 7 0 -31 44 -95 111 -31 33 -60 59
-63 59 -4 0 -16 9 -27 19 -41 38 -181 102 -254 117 -11 2 -47 7 -80 10 -33 3
-72 7 -87 9 -15 1 -29 1 -30 0z"/>
<path d="M12480 9355 c-112 -22 -176 -41 -196 -56 -6 -5 -13 -7 -16 -4 -10 10
-157 -140 -192 -197 -20 -31 -36 -62 -36 -68 0 -5 -4 -10 -8 -10 -6 0 -30 -64
-38 -102 -1 -5 -2 -9 -3 -10 -14 -17 -19 -198 -9 -281 3 -27 2 -63 -3 -80 -5
-18 -12 -45 -15 -61 -2 -15 -14 -61 -25 -102 -11 -40 -22 -81 -24 -91 -4 -19
-34 -138 -40 -163 -64 -245 -88 -338 -89 -350 -2 -8 -6 -25 -10 -37 -4 -12 -8
-30 -10 -40 -2 -10 -12 -47 -21 -83 -9 -36 -19 -73 -21 -83 -2 -10 -6 -27 -9
-37 -3 -10 -8 -29 -11 -42 -9 -39 -12 -53 -14 -53 -2 0 -7 -22 -15 -60 -3 -16
-9 -39 -12 -50 -9 -25 -11 -33 -18 -69 -3 -16 -9 -34 -12 -39 -4 -6 0 -8 10
-4 9 3 19 2 22 -2 3 -5 20 -10 37 -11 18 0 54 -2 80 -3 27 -1 48 -6 48 -10 0
-5 5 -5 10 -2 10 6 10 -4 -6 -80 -11 -56 -15 -65 -33 -65 -26 0 -108 -56 -116
-79 -3 -12 -10 -21 -15 -21 -9 0 -22 -51 -25 -100 -2 -33 23 -99 49 -128 85
-94 237 -90 310 8 17 22 31 46 33 52 1 7 5 29 8 48 10 58 14 72 36 145 11 39
28 96 37 128 15 51 32 71 45 50 3 -5 8 -37 11 -73 3 -36 8 -81 10 -100 3 -19
8 -60 11 -90 4 -30 8 -64 9 -75 21 -176 22 -196 11 -675 -4 -179 -8 -386 -9
-460 l-1 -135 52 2 c44 3 54 0 64 -18 8 -15 8 -19 0 -15 -8 5 -8 0 -2 -17 5
-13 5 -30 1 -37 -5 -8 -5 -21 -1 -29 4 -9 7 -114 6 -233 0 -120 4 -218 9 -218
5 0 3 -6 -3 -13 -6 -8 -9 -16 -6 -19 5 -4 8 -161 20 -929 l5 -315 -88 1 c-104
1 -173 -10 -221 -35 -44 -22 -101 -73 -101 -88 0 -7 -4 -12 -8 -12 -14 0 -44
-76 -51 -130 -1 -3 -27 -4 -58 -3 -74 4 -71 4 -120 0 -24 -2 -43 1 -43 6 0 6
-5 6 -12 0 -7 -5 -33 -8 -58 -6 -55 4 -51 4 -127 0 -35 -1 -63 1 -63 6 0 6 -5
6 -12 0 -7 -5 -31 -8 -53 -6 -22 2 -47 3 -55 3 -20 -1 -152 0 -165 0 -5 0 -29
-1 -52 -3 -24 -2 -43 1 -43 6 0 6 -5 6 -12 0 -7 -5 -33 -8 -58 -6 -55 4 -51 4
-127 0 -35 -1 -63 1 -63 6 0 6 -5 6 -12 0 -7 -5 -31 -8 -53 -6 -22 2 -47 3
-55 3 -20 -1 -152 0 -165 0 -5 0 -29 -1 -52 -3 -24 -2 -43 1 -43 6 0 6 -5 6
-12 0 -7 -5 -33 -8 -58 -6 -55 4 -51 4 -127 0 -35 -1 -63 1 -63 6 0 6 -5 6
-12 0 -7 -5 -31 -8 -53 -6 -22 2 -47 3 -55 3 -18 -1 -151 0 -165 0 -54 1 -80
-7 -80 -25 0 -20 20 -20 3054 -23 1680 -1 3059 2 3063 6 19 19 -3 40 -40 38
-20 -2 -43 2 -49 7 -7 5 -13 5 -13 1 0 -11 -120 -11 -137 -1 -7 5 -13 5 -13 0
0 -4 -22 -8 -50 -8 -27 0 -50 4 -50 9 0 5 -6 4 -12 0 -16 -11 -68 -11 -85 -1
-7 5 -13 5 -13 0 0 -4 -29 -8 -65 -8 -36 0 -65 4 -65 9 0 5 -6 4 -12 0 -16
-11 -68 -11 -85 -1 -7 5 -13 5 -13 0 0 -11 -92 -9 -109 2 -10 6 -12 4 -6 -6 8
-12 6 -12 -8 0 -9 7 -17 10 -17 5 0 -11 -80 -11 -97 -1 -7 5 -13 4 -13 0 0
-10 -81 -10 -98 1 -6 4 -12 3 -12 -1 0 -10 -121 -10 -137 0 -7 5 -13 4 -13 0
0 -5 -19 -8 -42 -6 -24 2 -49 3 -55 3 -17 0 -69 0 -85 0 -7 0 -32 -1 -55 -3
-24 -2 -43 1 -43 6 0 6 -5 6 -12 1 -16 -11 -68 -11 -85 -1 -7 5 -13 5 -13 0 0
-4 -22 -8 -50 -8 -27 0 -50 4 -50 9 0 5 -6 5 -12 0 -15 -11 -89 -11 -106 0 -7
4 -12 3 -12 -1 0 -7 -115 -9 -130 -3 -3 1 -9 1 -15 0 -28 -7 -145 -5 -145 2 0
4 3 8 8 9 4 0 14 2 22 4 8 2 65 12 125 24 61 11 124 23 140 27 17 3 39 7 50 9
23 4 83 16 105 20 8 2 25 4 36 4 28 1 34 19 24 67 -5 22 -11 50 -14 64 -3 14
-7 36 -10 50 -3 13 -8 42 -12 64 -8 53 -12 59 -39 52 -21 -5 -24 -2 -30 37 -4
23 -9 51 -11 62 -3 11 -7 36 -10 55 -3 19 -8 38 -11 43 -2 4 -7 26 -10 50 -6
51 -10 74 -30 172 -6 31 -22 116 -28 150 -2 17 -7 41 -10 55 -3 14 -8 40 -11
59 -3 18 -8 43 -10 55 -3 11 -7 35 -9 51 -3 17 -7 41 -10 55 -3 14 -8 36 -11
50 -2 14 -8 45 -14 70 -5 25 -12 63 -16 85 -4 22 -9 47 -10 55 -2 8 -5 27 -6
43 -1 15 -5 27 -8 27 -3 0 -5 10 -6 23 0 21 -10 78 -19 121 -3 12 -7 32 -9 46
-2 14 -11 58 -20 99 -9 41 -14 77 -11 79 2 2 -1 15 -6 29 -5 13 -12 48 -15 76
-4 29 -9 57 -12 62 -4 6 -7 19 -8 30 0 11 -4 34 -8 50 -8 39 -15 73 -21 110
-3 17 -8 42 -11 58 -3 16 -1 27 5 27 19 0 205 90 213 103 4 7 8 8 8 4 0 -5 24
10 53 33 54 43 107 120 107 156 0 33 -82 271 -133 386 -15 32 -29 68 -32 78 0
3 -11 25 -23 49 -12 25 -22 51 -22 58 0 7 -5 13 -10 13 -6 0 -9 3 -8 8 2 10
-6 29 -89 202 -110 230 -276 556 -293 574 -5 4 3 21 17 37 l26 28 27 -19 c34
-24 35 -24 57 -2 14 14 114 97 188 155 6 4 21 17 35 28 14 12 56 47 95 78 137
110 158 135 196 236 29 77 31 231 3 310 -14 44 -48 115 -53 115 -4 0 -17 17
-30 38 -20 32 -93 97 -172 154 -51 36 -255 187 -264 195 -6 5 -17 14 -26 19
-9 5 -32 21 -50 36 -19 15 -65 50 -104 78 -38 28 -77 56 -85 63 -8 7 -31 23
-50 36 -19 14 -42 31 -50 38 -8 7 -35 32 -60 54 -25 22 -57 48 -72 57 -16 9
-28 20 -28 24 0 4 -7 8 -15 8 -8 0 -15 3 -15 8 0 10 -130 77 -190 97 -3 1 -12
5 -20 8 -15 6 -93 25 -140 34 -61 11 -250 10 -310 -2z m1148 -1227 c23 -8 23
-10 -31 -66 -31 -31 -65 -68 -76 -81 -25 -28 -26 -18 -7 41 8 24 17 59 21 78
4 19 9 38 12 43 4 7 39 1 81 -15z m-293 -2487 c-3 -5 -1 -12 5 -16 5 -3 10
-17 10 -30 0 -13 5 -27 11 -30 5 -4 8 -12 6 -18 -2 -7 0 -20 5 -31 8 -14 52
-158 63 -201 1 -5 5 -17 8 -25 9 -24 69 -224 71 -237 1 -7 5 -16 9 -19 4 -4 7
-17 7 -29 0 -12 3 -25 8 -29 4 -4 7 -11 7 -14 1 -4 11 -41 24 -82 13 -41 24
-79 26 -85 1 -5 5 -17 8 -25 3 -8 7 -24 10 -35 5 -20 62 -206 168 -552 11 -38
21 -72 23 -78 1 -5 14 -48 29 -95 51 -163 79 -261 75 -265 -2 -2 -19 -7 -38
-10 -170 -28 -224 -50 -285 -117 -51 -54 -74 -112 -76 -185 -1 -18 -4 -33 -8
-34 -36 -5 -141 -2 -141 5 0 5 -6 4 -12 0 -16 -11 -68 -11 -85 -1 -7 5 -13 5
-13 0 0 -11 -92 -9 -109 2 -10 6 -12 4 -6 -6 8 -12 6 -12 -8 0 -9 7 -17 10
-17 5 0 -11 -80 -11 -97 -1 -7 5 -13 4 -13 0 0 -10 -81 -10 -98 1 -6 4 -12 4
-12 -1 0 -4 -53 -8 -117 -8 l-118 1 -3 129 c-3 125 -10 153 -35 138 -9 -5 -3
118 8 192 3 17 7 53 9 80 3 28 5 50 6 50 1 0 3 20 5 45 2 25 6 63 9 85 3 22 8
72 12 110 3 39 7 84 10 100 2 17 6 55 9 85 3 30 7 69 10 85 4 27 10 80 20 185
2 19 7 58 10 85 3 28 8 75 10 105 2 30 5 55 5 55 1 0 4 18 15 120 10 88 13
123 20 190 3 33 8 74 10 90 3 17 7 53 10 80 10 111 16 150 23 156 4 4 27 10
52 13 99 13 127 17 175 26 28 5 70 12 95 16 49 7 75 12 75 14 0 1 15 3 34 6
19 2 36 5 37 7 8 8 54 5 49 -2z m405 -2235 c0 -3 -4 -8 -10 -11 -5 -3 -10 -1
-10 4 0 6 5 11 10 11 6 0 10 -2 10 -4z"/>
</g>
</svg>
